<?xml version="1.0" encoding="UTF-8" standalone="no"?>
<!-- Created with Inkscape (http://www.inkscape.org/) -->

<svg
   version="1.1"
   id="svg2"
   width="3742.6667"
   height="2138.6667"
   viewBox="0 0 3742.6667 2138.6667"
   sodipodi:docname="32237069_sl_072622_51930_13.eps"
   xmlns:inkscape="http://www.inkscape.org/namespaces/inkscape"
   xmlns:sodipodi="http://sodipodi.sourceforge.net/DTD/sodipodi-0.dtd"
   xmlns="http://www.w3.org/2000/svg"
   xmlns:svg="http://www.w3.org/2000/svg">
  <defs
     id="defs6">
    <clipPath
       clipPathUnits="userSpaceOnUse"
       id="clipPath20">
      <path
         d="M 28062.4,4.30078 H 0 V 16040 h 28062.4 z"
         id="path18" />
    </clipPath>
  </defs>
  <sodipodi:namedview
     id="namedview4"
     
     bordercolor="#000000"
     borderopacity="0.25"
     inkscape:showpageshadow="2"
     inkscape:pageopacity="0.0"
     inkscape:pagecheckerboard="0"
     />
  <g
     id="g8"
     inkscape:groupmode="layer"
     inkscape:label="ink_ext_XXXXXX"
     transform="matrix(1.3333333,0,0,-1.3333333,0,2138.6667)">
    <g
       id="g10"
       transform="scale(0.1)">
      <path
         d="M 28062.4,4.30078 H 0 V 16040 H 28062.4 V 4.30078"
         style="fill-opacity:0;fill-rule:nonzero;stroke:none"
         id="path12" />
      <g
         id="g14">
        <g
           id="g16"
           clip-path="url(#clipPath20)">
          <path
             d="M -2085.05,-2056 H 30147.5 V 18100.3 H -2085.05 Z m 32274.25,-41.7 H -2126.82 V 18142 H 30189.2 V -2097.7"
             style="fill:#b1b1b0;fill-opacity:1;fill-rule:nonzero;stroke:none"
             id="path22" />
          <path
             d="M 30168.4,932 H -2105.94 v 41.801 H 30168.4 V 932"
             style="fill:#b1b1b0;fill-opacity:1;fill-rule:nonzero;stroke:none"
             id="path24" />
          <path
             d="M 30168.4,1941.9 H -2105.94 v 41.8 H 30168.4 v -41.8"
             style="fill:#b1b1b0;fill-opacity:1;fill-rule:nonzero;stroke:none"
             id="path26" />
          <path
             d="M 30168.4,2951.8 H -2105.94 v 41.8 H 30168.4 v -41.8"
             style="fill:#b1b1b0;fill-opacity:1;fill-rule:nonzero;stroke:none"
             id="path28" />
          <path
             d="M 30168.4,3961.7 H -2105.94 v 41.7 H 30168.4 v -41.7"
             style="fill:#b1b1b0;fill-opacity:1;fill-rule:nonzero;stroke:none"
             id="path30" />
          <path
             d="M 30168.4,4971.6 H -2105.94 v 41.8 H 30168.4 v -41.8"
             style="fill:#b1b1b0;fill-opacity:1;fill-rule:nonzero;stroke:none"
             id="path32" />
          <path
             d="M 30168.4,5981.5 H -2105.94 v 41.7 H 30168.4 v -41.7"
             style="fill:#b1b1b0;fill-opacity:1;fill-rule:nonzero;stroke:none"
             id="path34" />
          <path
             d="M 30168.4,6991.38 H -2105.94 v 41.77 H 30168.4 v -41.77"
             style="fill:#b1b1b0;fill-opacity:1;fill-rule:nonzero;stroke:none"
             id="path36" />
          <path
             d="M 30168.4,8001.28 H -2105.94 v 41.76 H 30168.4 v -41.76"
             style="fill:#b1b1b0;fill-opacity:1;fill-rule:nonzero;stroke:none"
             id="path38" />
          <path
             d="M 30168.4,9011.17 H -2105.94 v 41.76 H 30168.4 v -41.76"
             style="fill:#b1b1b0;fill-opacity:1;fill-rule:nonzero;stroke:none"
             id="path40" />
          <path
             d="M 30168.4,10021.1 H -2105.94 v 41.8 H 30168.4 v -41.8"
             style="fill:#b1b1b0;fill-opacity:1;fill-rule:nonzero;stroke:none"
             id="path42" />
          <path
             d="M 30168.4,11031 H -2105.94 v 41.8 H 30168.4 v -41.8"
             style="fill:#b1b1b0;fill-opacity:1;fill-rule:nonzero;stroke:none"
             id="path44" />
          <path
             d="M 30168.4,12040.9 H -2105.94 v 41.8 H 30168.4 v -41.8"
             style="fill:#b1b1b0;fill-opacity:1;fill-rule:nonzero;stroke:none"
             id="path46" />
          <path
             d="M 30168.4,13050.8 H -2105.94 v 41.7 H 30168.4 v -41.7"
             style="fill:#b1b1b0;fill-opacity:1;fill-rule:nonzero;stroke:none"
             id="path48" />
          <path
             d="M 30168.4,14060.7 H -2105.94 v 41.7 H 30168.4 v -41.7"
             style="fill:#b1b1b0;fill-opacity:1;fill-rule:nonzero;stroke:none"
             id="path50" />
          <path
             d="M 30168.4,15070.6 H -2105.94 v 41.7 H 30168.4 v -41.7"
             style="fill:#b1b1b0;fill-opacity:1;fill-rule:nonzero;stroke:none"
             id="path52" />
          <path
             d="m 27255.2,-2076.8 h -41.8 v 20198 h 41.8 v -20198"
             style="fill:#b1b1b0;fill-opacity:1;fill-rule:nonzero;stroke:none"
             id="path54" />
          <path
             d="m 26277.2,-2076.8 h -41.8 v 20198 h 41.8 v -20198"
             style="fill:#b1b1b0;fill-opacity:1;fill-rule:nonzero;stroke:none"
             id="path56" />
          <path
             d="m 25299.2,-2076.8 h -41.8 v 20198 h 41.8 v -20198"
             style="fill:#b1b1b0;fill-opacity:1;fill-rule:nonzero;stroke:none"
             id="path58" />
          <path
             d="m 24321.2,-2076.8 h -41.8 v 20198 h 41.8 v -20198"
             style="fill:#b1b1b0;fill-opacity:1;fill-rule:nonzero;stroke:none"
             id="path60" />
          <path
             d="m 23343.2,-2076.8 h -41.8 v 20198 h 41.8 v -20198"
             style="fill:#b1b1b0;fill-opacity:1;fill-rule:nonzero;stroke:none"
             id="path62" />
          <path
             d="m 22365.2,-2076.8 h -41.8 v 20198 h 41.8 v -20198"
             style="fill:#b1b1b0;fill-opacity:1;fill-rule:nonzero;stroke:none"
             id="path64" />
          <path
             d="m 21387.2,-2076.8 h -41.8 v 20198 h 41.8 v -20198"
             style="fill:#b1b1b0;fill-opacity:1;fill-rule:nonzero;stroke:none"
             id="path66" />
          <path
             d="m 20409.2,-2076.8 h -41.8 v 20198 h 41.8 v -20198"
             style="fill:#b1b1b0;fill-opacity:1;fill-rule:nonzero;stroke:none"
             id="path68" />
          <path
             d="m 19431.2,-2076.8 h -41.8 v 20198 h 41.8 v -20198"
             style="fill:#b1b1b0;fill-opacity:1;fill-rule:nonzero;stroke:none"
             id="path70" />
          <path
             d="m 18453.1,-2076.8 h -41.7 v 20198 h 41.7 v -20198"
             style="fill:#b1b1b0;fill-opacity:1;fill-rule:nonzero;stroke:none"
             id="path72" />
          <path
             d="m 17475.1,-2076.8 h -41.7 v 20198 h 41.7 v -20198"
             style="fill:#b1b1b0;fill-opacity:1;fill-rule:nonzero;stroke:none"
             id="path74" />
          <path
             d="m 16497.1,-2076.8 h -41.7 v 20198 h 41.7 v -20198"
             style="fill:#b1b1b0;fill-opacity:1;fill-rule:nonzero;stroke:none"
             id="path76" />
          <path
             d="m 15519.1,-2076.8 h -41.8 v 20198 h 41.8 v -20198"
             style="fill:#b1b1b0;fill-opacity:1;fill-rule:nonzero;stroke:none"
             id="path78" />
          <path
             d="m 14541.1,-2076.8 h -41.8 v 20198 h 41.8 v -20198"
             style="fill:#b1b1b0;fill-opacity:1;fill-rule:nonzero;stroke:none"
             id="path80" />
          <path
             d="m 13563.1,-2076.8 h -41.8 v 20198 h 41.8 v -20198"
             style="fill:#b1b1b0;fill-opacity:1;fill-rule:nonzero;stroke:none"
             id="path82" />
          <path
             d="m 12585.1,-2076.8 h -41.8 v 20198 h 41.8 v -20198"
             style="fill:#b1b1b0;fill-opacity:1;fill-rule:nonzero;stroke:none"
             id="path84" />
          <path
             d="m 11607.1,-2076.8 h -41.8 v 20198 h 41.8 v -20198"
             style="fill:#b1b1b0;fill-opacity:1;fill-rule:nonzero;stroke:none"
             id="path86" />
          <path
             d="m 10629.1,-2076.8 h -41.8 v 20198 h 41.8 v -20198"
             style="fill:#b1b1b0;fill-opacity:1;fill-rule:nonzero;stroke:none"
             id="path88" />
          <path
             d="m 9651.04,-2076.8 h -41.75 v 20198 h 41.75 v -20198"
             style="fill:#b1b1b0;fill-opacity:1;fill-rule:nonzero;stroke:none"
             id="path90" />
          <path
             d="m 8673.04,-2076.8 h -41.77 v 20198 h 41.77 v -20198"
             style="fill:#b1b1b0;fill-opacity:1;fill-rule:nonzero;stroke:none"
             id="path92" />
          <path
             d="m 7695.03,-2076.8 h -41.76 v 20198 h 41.76 v -20198"
             style="fill:#b1b1b0;fill-opacity:1;fill-rule:nonzero;stroke:none"
             id="path94" />
          <path
             d="m 6717.03,-2076.8 h -41.77 v 20198 h 41.77 v -20198"
             style="fill:#b1b1b0;fill-opacity:1;fill-rule:nonzero;stroke:none"
             id="path96" />
          <path
             d="m 5739.01,-2076.8 h -41.75 v 20198 h 41.75 v -20198"
             style="fill:#b1b1b0;fill-opacity:1;fill-rule:nonzero;stroke:none"
             id="path98" />
          <path
             d="m 4761.02,-2076.8 h -41.76 v 20198 h 41.76 v -20198"
             style="fill:#b1b1b0;fill-opacity:1;fill-rule:nonzero;stroke:none"
             id="path100" />
          <path
             d="m 3783.01,-2076.8 h -41.76 v 20198 h 41.76 v -20198"
             style="fill:#b1b1b0;fill-opacity:1;fill-rule:nonzero;stroke:none"
             id="path102" />
          <path
             d="m 2805,-2076.8 h -41.76 v 20198 H 2805 v -20198"
             style="fill:#b1b1b0;fill-opacity:1;fill-rule:nonzero;stroke:none"
             id="path104" />
          <path
             d="m 1827,-2076.8 h -41.76 v 20198 H 1827 v -20198"
             style="fill:#b1b1b0;fill-opacity:1;fill-rule:nonzero;stroke:none"
             id="path106" />
          <path
             d="m 848.961,-2076.8 h -41.758 v 20198 h 41.758 v -20198"
             style="fill:#b1b1b0;fill-opacity:1;fill-rule:nonzero;stroke:none"
             id="path108" />
        </g>
      </g>
    </g>
  </g>
</svg>
