<svg width="181" height="46" viewBox="0 0 181 46" fill="none" xmlns="http://www.w3.org/2000/svg">
<g clip-path="url(#clip0_1_2)">
<mask id="mask0_1_2" style="mask-type:luminance" maskUnits="userSpaceOnUse" x="53" y="0" width="128" height="46">
<path d="M181 0H53V46H181V0Z" fill="white"/>
</mask>
<g mask="url(#mask0_1_2)">
<path d="M58.217 4.55762H62.308L68.8471 20.7118H68.9071L72.1618 4.55762H75.8943L71.4721 26.1981H67.3842L60.8147 10.1388H60.7555L57.5304 26.1981H53.7979L58.217 4.55762Z" fill="black"/>
<path d="M79.8056 4.55762H83.5381L80.7907 17.7998C80.731 18.083 80.6811 18.371 80.6411 18.6637C80.6013 18.9572 80.5717 19.2546 80.5515 19.5584C80.5322 20.2852 80.6361 20.8962 80.8632 21.3914C81.0788 21.871 81.4147 22.2845 81.8374 22.5907C82.2775 22.9046 82.7749 23.1262 83.3004 23.2426C83.8981 23.3787 84.5092 23.4448 85.1218 23.4396C85.7913 23.4458 86.4587 23.3644 87.1077 23.1975C87.7118 23.0376 88.2729 22.7424 88.7499 22.3336C89.2372 21.9196 89.6701 21.354 90.0483 20.6367C90.4266 19.9194 90.7352 19.0049 90.9742 17.8932L93.78 4.55762H97.5125L94.7067 18.136C94.5058 19.1009 94.2455 20.0521 93.9273 20.984C93.5798 22.0106 93.0372 22.958 92.3304 23.7726C91.6029 24.6217 90.6323 25.3237 89.4186 25.8785C88.2048 26.4333 86.6323 26.7113 84.7009 26.7123C83.6818 26.7174 82.6668 26.5798 81.6847 26.3033C80.7815 26.0564 79.9315 25.6408 79.1782 25.0779C78.4583 24.5275 77.8719 23.8175 77.4635 23.0021C77.0348 22.1635 76.8208 21.1783 76.8213 20.0465C76.821 19.5541 76.8564 19.0623 76.9273 18.5751C76.9967 18.1004 77.0832 17.6202 77.1814 17.1361L79.8056 4.55762Z" fill="black"/>
<path d="M112.382 4.55762H108.441L95.6592 26.1973H99.659L102.943 20.4714L104.526 17.5894L109.662 8.37625H109.721L111.037 17.5894L111.426 20.4714L112.294 26.1973H116.085L112.382 4.55762Z" fill="black"/>
<path d="M122.356 4.55762H126.447L132.986 20.7118H133.046L136.301 4.55762H140.033L135.615 26.1981H131.524L124.955 10.1388H124.895L121.669 26.1981H117.937L122.356 4.55762Z" fill="black"/>
<path d="M156.515 11.7708C156.515 10.2556 156.101 9.10402 155.275 8.31609C154.449 7.52815 153.26 7.13419 151.707 7.13419C150.433 7.13419 149.323 7.42716 148.378 8.0131C147.435 8.59635 146.63 9.38247 146.019 10.316C145.376 11.3008 144.897 12.3862 144.601 13.5286C144.284 14.7042 144.124 15.9174 144.123 17.136C144.123 19.1565 144.631 20.7424 145.646 21.8937C146.661 23.045 148.104 23.6209 149.975 23.6215C150.931 23.6215 151.736 23.4348 152.392 23.0614C153.014 22.7158 153.567 22.2529 154.019 21.6975C154.425 21.1987 154.757 20.6418 155.004 20.0449C155.194 19.5901 155.359 19.1248 155.497 18.651H159.231C158.931 20.0254 158.484 21.2176 157.887 22.2276C157.33 23.1898 156.607 24.0421 155.751 24.7432C154.934 25.4057 154.002 25.9091 153.004 26.2281C151.985 26.5534 150.922 26.717 149.854 26.7131C148.322 26.7131 146.968 26.4707 145.793 25.9861C144.618 25.5014 143.633 24.8345 142.837 23.9854C142.033 23.1232 141.413 22.1016 141.016 20.9847C140.592 19.7896 140.38 18.5273 140.392 17.2571C140.392 14.9945 140.725 13.0294 141.392 11.3618C142.059 9.69418 142.934 8.32004 144.019 7.2394C145.065 6.18503 146.316 5.36447 147.693 4.83051C149.012 4.31245 150.414 4.04431 151.828 4.03941C153.002 4.02732 154.17 4.20107 155.292 4.55441C156.347 4.8988 157.248 5.39377 157.995 6.0393C158.748 6.69771 159.336 7.52893 159.709 8.46402C160.107 9.43391 160.286 10.5351 160.246 11.7676L156.515 11.7708Z" fill="black"/>
<path d="M165.474 4.55762H181.001L180.344 7.83197H168.489L167.325 13.4994H178.314L177.691 16.591H166.668L165.384 22.9253H177.327L176.67 26.1989H161.054L165.474 4.55762Z" fill="black"/>
<path d="M57.88 45.9999C56.8893 46.0123 55.9084 45.7982 55.0103 45.3734C54.1447 44.9557 53.5123 44.4243 53.1133 43.7793L53.8981 43.0017C54.8329 44.3429 56.1914 45.0134 57.9736 45.0134C58.9946 45.0134 59.7739 44.7321 60.3117 44.1693C60.8495 43.6066 61.1174 42.9711 61.1153 42.2628C61.1153 41.7565 60.9002 41.3169 60.4699 40.944C60.0051 40.5496 59.4816 40.2324 58.919 40.0042C58.3142 39.7516 57.7065 39.4892 57.096 39.2171C56.5068 38.9608 55.9761 38.5837 55.5372 38.1095C55.1144 37.6608 54.8825 37.0612 54.8918 36.4403C54.8918 35.4794 55.3 34.6509 56.1163 33.9547C56.9326 33.2585 57.9255 32.9102 59.0951 32.9096C59.9773 32.8987 60.8513 33.083 61.6562 33.45C62.4283 33.8107 63.0076 34.2883 63.3942 34.8826L62.5868 35.6397C62.2108 35.0687 61.6826 34.6179 61.0638 34.3399C60.4161 34.0422 59.7126 33.8902 59.0016 33.8946C58.191 33.8946 57.4963 34.1411 56.9175 34.6342C56.3387 35.1274 56.0487 35.6904 56.0477 36.3232C56.0477 36.791 56.2628 37.199 56.693 37.5471C57.1683 37.9209 57.6937 38.224 58.2534 38.4473C58.8644 38.7005 59.4752 38.966 60.0857 39.244C60.6795 39.5107 61.2108 39.9022 61.6445 40.3926C62.0699 40.8665 62.3007 41.4874 62.2898 42.1283C62.2898 43.1531 61.8973 44.0541 61.1122 44.8315C60.3271 45.6089 59.2497 45.9984 57.88 45.9999Z" fill="black"/>
<path d="M68.7959 45.7721H67.7118L70.2541 34.1034H66.1787L66.3845 33.1169H75.6187L75.4129 34.1034H71.3383L68.7959 45.7721Z" fill="black"/>
<path d="M81.1145 46.0002C79.6934 46.0002 78.5718 45.631 77.7498 44.8926C76.9278 44.1543 76.5166 43.1522 76.5161 41.8865C76.5115 41.5614 76.5429 41.2369 76.6096 40.9189L78.2915 33.1211H79.3756L77.6937 40.9C77.6221 41.1788 77.5844 41.4654 77.5815 41.7535C77.5815 42.7282 77.8961 43.5156 78.5253 44.1158C79.1545 44.716 80.0176 45.0152 81.1145 45.0137C82.2981 45.0137 83.2074 44.6658 83.8423 43.9702C84.4773 43.2746 84.9449 42.2501 85.2452 40.8968L86.9279 33.1179H88.0121L86.3294 40.9158C85.9552 42.5855 85.3728 43.8513 84.582 44.7131C83.7911 45.5748 82.6353 46.0039 81.1145 46.0002Z" fill="black"/>
<path d="M92.7964 45.7723H88.834L91.5813 33.1147H95.4697C96.8773 33.1163 98.0747 33.6282 99.0619 34.6503C100.049 35.6724 100.541 36.9563 100.538 38.5021C100.538 39.2119 100.437 39.9179 100.239 40.5985C100.032 41.3028 99.7167 41.9691 99.3035 42.5723C98.8798 43.1972 98.3656 43.7535 97.7783 44.2226C97.1859 44.6972 96.4601 45.0735 95.6007 45.3515C94.693 45.6383 93.747 45.7802 92.7964 45.7723ZM92.8899 44.7858H92.9827C94.9015 44.7858 96.453 44.1793 97.6372 42.9663C98.8213 41.7533 99.4132 40.2797 99.4126 38.5456C99.4126 37.2683 99.0172 36.209 98.2264 35.3678C97.4356 34.5266 96.4484 34.1047 95.2647 34.102H92.441L90.1028 44.7819L92.8899 44.7858Z" fill="black"/>
<path d="M103.302 45.7723H102.236L104.984 33.1147H106.05L103.302 45.7723Z" fill="black"/>
<path d="M113.19 46C111.582 46 110.245 45.5129 109.18 44.5388C108.114 43.5647 107.582 42.2238 107.582 40.5161C107.582 38.3785 108.255 36.5761 109.601 35.1089C110.946 33.6417 112.579 32.9086 114.498 32.9097C116.105 32.9097 117.439 33.3967 118.498 34.3708C119.558 35.3449 120.087 36.6856 120.087 38.3928C120.087 40.5303 119.414 42.3327 118.068 43.7999C116.722 45.2672 115.096 46.0005 113.19 46ZM113.247 45.0135C114.792 45.0135 116.125 44.3843 117.247 43.1259C118.369 41.8675 118.93 40.3022 118.929 38.43C118.929 37.0002 118.499 35.8871 117.64 35.0907C116.781 34.2944 115.702 33.8959 114.406 33.8954C112.861 33.8954 111.531 34.5217 110.415 35.7742C109.3 37.0268 108.742 38.595 108.742 40.4789C108.742 41.9082 109.169 43.0212 110.022 43.8181C110.876 44.615 111.951 45.0135 113.247 45.0135Z" fill="black"/>
</g>
<path d="M6.05031 41.3148L0 35.6049L22.1069 13.9074H0L7.91195 5H37V33.5494L28.1572 42L27.6918 20.0741L6.05031 41.3148Z" fill="#4520FC"/>
</g>
<defs>
<clipPath id="clip0_1_2">
<rect width="181" height="46" fill="white"/>
</clipPath>
</defs>
</svg>
